{
  "accessors": [
    {
      "bufferView": 2,
      "componentType": 5126,
      "count": 7797,
      "max": [
        1.0,
        0.37736600637435913,
        0.4244920015335083
      ],
      "min": [
        -1.0,
        -0.37736600637435913,
        -0.41726699471473694
      ],
      "type": "VEC3"
    },
    {
      "bufferView": 2,
      "byteOffset": 93564,
      "componentType": 5126,
      "count": 7797,
      "max": [
        1.0,
        1.0,
        1.0
      ],
      "min": [
        -1.0,
        -1.0,
        -1.0
      ],
      "type": "VEC3"
    },
    {
      "bufferView": 3,
      "componentType": 5126,
      "count": 7797,
      "max": [
        1.0,
        1.0,
        1.0,
        1.0
      ],
      "min": [
        -1.0,
        -1.0,
        -1.0,
        -1.0
      ],
      "type": "VEC4"
    },
    {
      "bufferView": 1,
      "componentType": 5126,
      "count": 7797,
      "max": [
        0.9980469942092896,
        0.9985290169715881
      ],
      "min": [
        0.0019531298894435167,
        0.0019531298894435167
      ],
      "type": "VEC2"
    },
    {
      "bufferView": 1,
      "byteOffset": 62376,
      "componentType": 5126,
      "count": 7797,
      "max": [
        0.9980469942092896,
        0.9985290169715881
      ],
      "min": [
        0.0019531298894435167,
        0.0019531298894435167
      ],
      "type": "VEC2"
    },
    {
      "bufferView": 1,
      "byteOffset": 124752,
      "componentType": 5126,
      "count": 7797,
      "max": [
        0.9980469942092896,
        0.9985290169715881
      ],
      "min": [
        0.0019531298894435167,
        0.0019531298894435167
      ],
      "type": "VEC2"
    },
    {
      "bufferView": 1,
      "byteOffset": 187128,
      "componentType": 5126,
      "count": 7797,
      "max": [
        0.9980469942092896,
        0.9985290169715881
      ],
      "min": [
        0.0019531298894435167,
        0.0019531298894435167
      ],
      "type": "VEC2"
    },
    {
      "bufferView": 0,
      "componentType": 5125,
      "count": 22221,
      "type": "SCALAR"
    }
  ],
  "asset": {
    "extras": {
      "author": "chaiwat18 (https://sketchfab.com/chaiwat18)",
      "license": "CC-BY-4.0 (http://creativecommons.org/licenses/by/4.0/)",
      "source": "https://sketchfab.com/3d-models/lathe-75ca14bc817f4a098ee2aedc5ecbc323",
      "title": "lathe"
    },
    "generator": "Sketchfab-15.31.0",
    "version": "2.0"
  },
  "bufferViews": [
    {
      "buffer": 0,
      "byteLength": 88884,
      "name": "floatBufferViews",
      "target": 34963
    },
    {
      "buffer": 0,
      "byteLength": 249504,
      "byteOffset": 88884,
      "byteStride": 8,
      "name": "floatBufferViews",
      "target": 34962
    },
    {
      "buffer": 0,
      "byteLength": 187128,
      "byteOffset": 338388,
      "byteStride": 12,
      "name": "floatBufferViews",
      "target": 34962
    },
    {
      "buffer": 0,
      "byteLength": 124752,
      "byteOffset": 525516,
      "byteStride": 16,
      "name": "floatBufferViews",
      "target": 34962
    }
  ],
  "buffers": [
    {
      "byteLength": 650268,
      "uri": "scene.bin"
    }
  ],
  "images": [
    {
      "uri": "textures/02___Default_baseColor.jpeg"
    },
    {
      "uri": "textures/02___Default_metallicRoughness.png"
    },
    {
      "uri": "textures/02___Default_normal.png"
    }
  ],
  "materials": [
    {
      "doubleSided": true,
      "name": "02___Default",
      "normalTexture": {
        "index": 2
      },
      "pbrMetallicRoughness": {
        "baseColorTexture": {
          "index": 0
        },
        "metallicRoughnessTexture": {
          "index": 1
        }
      }
    }
  ],
  "meshes": [
    {
      "name": "Object_0",
      "primitives": [
        {
          "attributes": {
            "NORMAL": 1,
            "POSITION": 0,
            "TANGENT": 2,
            "TEXCOORD_0": 3,
            "TEXCOORD_1": 4,
            "TEXCOORD_2": 5,
            "TEXCOORD_3": 6
          },
          "indices": 7,
          "material": 0,
          "mode": 4
        }
      ]
    }
  ],
  "nodes": [
    {
      "children": [
        1
      ],
      "matrix": [
        1.0,
        0.0,
        0.0,
        0.0,
        0.0,
        2.220446049250313e-16,
        -1.0,
        0.0,
        0.0,
        1.0,
        2.220446049250313e-16,
        0.0,
        0.0,
        0.0,
        0.0,
        1.0
      ],
      "name": "Sketchfab_model"
    },
    {
      "children": [
        2
      ],
      "name": "root"
    },
    {
      "children": [
        3
      ],
      "matrix": [
        1.0,
        0.0,
        0.0,
        0.0,
        0.0,
        2.220446049250313e-16,
        1.0,
        0.0,
        0.0,
        -1.0,
        2.220446049250313e-16,
        0.0,
        0.0,
        0.0,
        0.0,
        1.0
      ],
      "name": "GLTF_SceneRootNode"
    },
    {
      "children": [
        4
      ],
      "matrix": [
        1.0,
        0.0,
        0.0,
        0.0,
        0.0,
        2.220446049250313e-16,
        -1.0,
        0.0,
        0.0,
        1.0,
        2.220446049250313e-16,
        0.0,
        0.0,
        0.0,
        0.0,
        1.0
      ],
      "name": "Sketchfab_model_0"
    },
    {
      "children": [
        5
      ],
      "matrix": [
        1.0,
        0.0,
        0.0,
        0.0,
        0.0,
        -4.371138828673793e-08,
        1.0,
        0.0,
        0.0,
        -1.0,
        -4.371138828673793e-08,
        0.0,
        0.0,
        0.0,
        0.0,
        1.0
      ],
      "name": "Collada visual scene group_1"
    },
    {
      "children": [
        6
      ],
      "name": "final_low_poly_2"
    },
    {
      "children": [
        7
      ],
      "name": "defaultMaterial_3"
    },
    {
      "mesh": 0,
      "name": "Object_7"
    }
  ],
  "samplers": [
    {
      "magFilter": 9729,
      "minFilter": 9987,
      "wrapS": 10497,
      "wrapT": 10497
    }
  ],
  "scene": 0,
  "scenes": [
    {
      "name": "Sketchfab_Scene",
      "nodes": [
        0
      ]
    }
  ],
  "textures": [
    {
      "sampler": 0,
      "source": 0
    },
    {
      "sampler": 0,
      "source": 1
    },
    {
      "sampler": 0,
      "source": 2
    }
  ]
}
